<svg width="16" height="16" viewBox="0 0 16 16" fill="none" xmlns="http://www.w3.org/2000/svg">
<g clip-path="url(#clip0_437_511)">
<path d="M7.99984 0.666504C6.54944 0.666504 5.13162 1.0966 3.92566 1.90239C2.7197 2.70819 1.77977 3.8535 1.22472 5.19349C0.669681 6.53348 0.524457 8.00797 0.807415 9.4305C1.09037 10.853 1.78881 12.1597 2.81439 13.1853C3.83998 14.2109 5.14665 14.9093 6.56918 15.1923C7.99171 15.4752 9.4662 15.33 10.8062 14.775C12.1462 14.2199 13.2915 13.28 14.0973 12.074C14.9031 10.8681 15.3332 9.45023 15.3332 7.99984C15.3309 6.05562 14.5575 4.19169 13.1828 2.81692C11.808 1.44215 9.94406 0.668798 7.99984 0.666504ZM7.99984 13.9998C6.81315 13.9998 5.65311 13.6479 4.66642 12.9887C3.67972 12.3294 2.91069 11.3923 2.45656 10.2959C2.00244 9.19958 1.88362 7.99318 2.11513 6.8293C2.34664 5.66541 2.91808 4.59631 3.7572 3.7572C4.59632 2.91808 5.66541 2.34664 6.8293 2.11513C7.99319 1.88361 9.19958 2.00243 10.2959 2.45656C11.3923 2.91069 12.3294 3.67972 12.9887 4.66642C13.6479 5.65311 13.9998 6.81315 13.9998 7.99984C13.9979 9.59054 13.3651 11.1155 12.2403 12.2403C11.1155 13.3651 9.59054 13.9979 7.99984 13.9998ZM8.66651 10.9998V12.3332H7.33317V10.9998H8.66651ZM10.6665 6.33317C10.6672 6.73299 10.5777 7.12781 10.4045 7.4882C10.2314 7.84858 9.9791 8.16522 9.66651 8.4145C9.16156 8.8058 8.82011 9.37084 8.70851 9.99984H7.35384C7.41279 9.48586 7.57405 8.98888 7.82812 8.53822C8.08219 8.08756 8.42393 7.69233 8.83317 7.37584C8.99741 7.24439 9.12821 7.07596 9.2149 6.88429C9.30158 6.69262 9.34169 6.48317 9.33193 6.27304C9.32218 6.0629 9.26285 5.85806 9.15878 5.67525C9.05472 5.49243 8.90888 5.33684 8.73318 5.22117C8.53735 5.09317 8.31203 5.0174 8.07865 5.00106C7.84527 4.98473 7.61159 5.02837 7.39984 5.12784C7.17397 5.2361 6.98442 5.40765 6.85423 5.62163C6.72404 5.83562 6.65882 6.08281 6.66651 6.33317C6.66651 6.50998 6.59627 6.67955 6.47125 6.80457C6.34622 6.9296 6.17665 6.99984 5.99984 6.99984C5.82303 6.99984 5.65346 6.9296 5.52844 6.80457C5.40341 6.67955 5.33317 6.50998 5.33317 6.33317C5.32326 5.82079 5.46463 5.31687 5.73961 4.88442C6.01459 4.45197 6.41097 4.11019 6.87917 3.90184C7.29421 3.71635 7.74927 3.63837 8.20238 3.67507C8.65549 3.71177 9.09207 3.86198 9.47184 4.11184C9.83881 4.35477 10.1399 4.68474 10.3484 5.07233C10.5569 5.45992 10.6661 5.89308 10.6665 6.33317Z" fill="#414141"/>
</g>
<defs>
<clipPath id="clip0_437_511">
<rect width="16" height="16" fill="white"/>
</clipPath>
</defs>
</svg>
