<svg width="16" height="16" viewBox="0 0 16 16" fill="none" xmlns="http://www.w3.org/2000/svg">
<path d="M7.99984 7.00016C7.34057 7.00016 6.6961 6.80467 6.14794 6.4384C5.59977 6.07212 5.17253 5.55153 4.92024 4.94244C4.66795 4.33335 4.60194 3.66313 4.73055 3.01653C4.85917 2.36993 5.17664 1.77598 5.64282 1.30981C6.10899 0.843633 6.70293 0.526164 7.34954 0.397547C7.99614 0.268929 8.66636 0.33494 9.27545 0.587232C9.88454 0.839525 10.4051 1.26677 10.7714 1.81493C11.1377 2.36309 11.3332 3.00756 11.3332 3.66683C11.3332 4.55089 10.982 5.39873 10.3569 6.02385C9.73174 6.64897 8.88389 7.00016 7.99984 7.00016ZM7.99984 1.66683C7.60428 1.66683 7.2176 1.78413 6.8887 2.00389C6.5598 2.22365 6.30345 2.53601 6.15208 2.90146C6.0007 3.26692 5.9611 3.66905 6.03827 4.05701C6.11544 4.44497 6.30592 4.80134 6.58562 5.08104C6.86533 5.36075 7.2217 5.55123 7.60966 5.6284C7.99762 5.70557 8.39975 5.66596 8.7652 5.51459C9.13066 5.36321 9.44301 5.10687 9.66278 4.77797C9.88254 4.44907 9.99984 4.06239 9.99984 3.66683C9.99984 3.1364 9.78912 2.62769 9.41405 2.25262C9.03898 1.87754 8.53027 1.66683 7.99984 1.66683Z" fill="#414141"/>
<path d="M14.0002 15.6665H2.00016C1.82335 15.6665 1.65378 15.5963 1.52876 15.4712C1.40373 15.3462 1.3335 15.1766 1.3335 14.9998V12.9998C1.3335 11.5853 1.8954 10.2288 2.89559 9.2286C3.89579 8.22841 5.25234 7.6665 6.66683 7.6665H9.3335C10.748 7.6665 12.1045 8.22841 13.1047 9.2286C14.1049 10.2288 14.6668 11.5853 14.6668 12.9998V14.9998C14.6668 15.1766 14.5966 15.3462 14.4716 15.4712C14.3465 15.5963 14.177 15.6665 14.0002 15.6665ZM2.66683 14.3332H13.3335V12.9998C13.3335 11.939 12.9121 10.9216 12.1619 10.1714C11.4118 9.42126 10.3944 8.99984 9.3335 8.99984H6.66683C5.60596 8.99984 4.58855 9.42126 3.8384 10.1714C3.08826 10.9216 2.66683 11.939 2.66683 12.9998V14.3332Z" fill="#414141"/>
</svg>
