<svg width="16" height="16" viewBox="0 0 16 16" fill="none" xmlns="http://www.w3.org/2000/svg">
<g clip-path="url(#clip0_437_508)">
<path d="M11.7881 16.0038C11.4182 16.0035 11.0508 15.9437 10.7001 15.8264C8.25055 15.0057 6.02424 13.6291 4.19541 11.8044C2.37081 9.97598 0.994416 7.74983 0.174075 5.30045C-0.0429815 4.65577 -0.0619505 3.96085 0.119614 3.3053C0.301179 2.64974 0.674952 2.0636 1.19274 1.62245L2.45941 0.537112C2.68712 0.341905 2.95179 0.194534 3.23766 0.10378C3.52352 0.0130265 3.82473 -0.0192527 4.12334 0.00886599C4.42195 0.0369847 4.71184 0.124926 4.97574 0.26745C5.23964 0.409973 5.47214 0.604162 5.65941 0.838445L7.26674 2.84978C7.52357 3.17216 7.67486 3.56583 7.70003 3.97724C7.7252 4.38865 7.62303 4.79783 7.40741 5.14911L6.67407 6.33911C6.59522 6.46677 6.56173 6.61729 6.57903 6.76634C6.59633 6.91539 6.66341 7.05425 6.76941 7.16045L8.83607 9.22711C8.94215 9.33306 9.08084 9.40016 9.22974 9.41758C9.37865 9.435 9.52908 9.40172 9.65674 9.32311L10.8474 8.58978C11.1986 8.37378 11.6078 8.27139 12.0193 8.29656C12.4308 8.32174 12.8245 8.47326 13.1467 8.73044L15.1581 10.3398C15.3923 10.5271 15.5864 10.7596 15.7289 11.0235C15.8713 11.2874 15.9592 11.5773 15.9874 11.8759C16.0155 12.1745 15.9832 12.4756 15.8925 12.7615C15.8018 13.0473 15.6545 13.312 15.4594 13.5398L14.3741 14.8064C14.0552 15.1811 13.6589 15.4821 13.2124 15.6888C12.766 15.8955 12.28 16.003 11.7881 16.0038ZM3.91274 1.33311C3.69799 1.33297 3.49031 1.40984 3.32741 1.54978L2.06008 2.63511C1.74422 2.90416 1.51617 3.26163 1.40531 3.66146C1.29445 4.06129 1.30586 4.48516 1.43808 4.87844C2.19324 7.13165 3.45961 9.17952 5.13807 10.8618C6.82059 12.5401 8.86869 13.8062 11.1221 14.5611C11.5153 14.6934 11.9391 14.7049 12.3389 14.5942C12.7388 14.4834 13.0963 14.2555 13.3654 13.9398L14.4501 12.6731C14.5288 12.5813 14.5882 12.4746 14.6247 12.3593C14.6613 12.244 14.6742 12.1226 14.6629 12.0022C14.6515 11.8818 14.616 11.765 14.5584 11.6586C14.5009 11.5522 14.4226 11.4585 14.3281 11.3831L12.3167 9.77378C12.2094 9.68788 12.0781 9.63729 11.9408 9.62894C11.8036 9.62059 11.6671 9.65487 11.5501 9.72711L10.3601 10.4604C9.97743 10.6981 9.52551 10.7991 9.0781 10.7467C8.63069 10.6944 8.21424 10.492 7.89674 10.1724L5.83007 8.10578C5.51005 7.78787 5.30732 7.37082 5.25501 6.92277C5.20269 6.47473 5.3039 6.02219 5.54207 5.63911L6.27541 4.44911C6.34764 4.33211 6.38193 4.19563 6.37358 4.05838C6.36523 3.92113 6.31464 3.78982 6.22874 3.68245L4.61674 1.67178C4.53255 1.56587 4.42548 1.4804 4.30356 1.42175C4.18164 1.36309 4.04803 1.33279 3.91274 1.33311Z" fill="#414141"/>
</g>
<defs>
<clipPath id="clip0_437_508">
<rect width="16" height="16" fill="white"/>
</clipPath>
</defs>
</svg>
