<svg width="16" height="16" viewBox="0 0 16 16" fill="none" xmlns="http://www.w3.org/2000/svg">
<path d="M14.4071 14.3514H1.38565C0.54781 14.3514 0 13.7249 0 12.9254V5.71953C0 4.89007 0.576 4.18937 1.38565 4.18937H5.23454L5.52533 2.80677C5.69676 2.11927 6.30324 1.64893 7.00343 1.64893H8.92775C9.62794 1.64893 10.2347 2.11927 10.4028 2.79305L10.6964 4.18937H14.4071C15.2117 4.18937 16 4.89007 16 5.71953V12.9254C16 13.7383 15.2536 14.3514 14.4071 14.3514ZM1.38565 4.95153C0.995556 4.95153 0.761905 5.31039 0.761905 5.71953V12.9254C0.761905 13.3101 0.96127 13.5892 1.38565 13.5892H14.4071C14.8259 13.5892 15.2381 13.3101 15.2381 12.9254V5.71953C15.2381 5.31039 14.7921 4.95153 14.4071 4.95153H10.387C10.2067 4.95153 10.0513 4.82531 10.0145 4.64905L9.66044 2.96372C9.58044 2.64423 9.27771 2.41108 8.92775 2.41108H7.00343C6.65346 2.41108 6.35098 2.64423 6.26768 2.97743L5.9167 4.64905C5.87962 4.82531 5.72419 4.95153 5.54387 4.95153H1.38565Z" fill="#414141"/>
<path d="M7.81257 11.6777C6.41295 11.6777 5.27441 10.5386 5.27441 9.13902C5.27441 7.73889 6.41295 6.6001 7.81257 6.6001C9.21168 6.6001 10.3505 7.73889 10.3505 9.13902C10.3505 10.5386 9.21168 11.6777 7.81257 11.6777ZM7.81257 7.36226C6.83302 7.36226 6.03632 8.15921 6.03632 9.13902C6.03632 10.1186 6.83302 10.9155 7.81257 10.9155C8.79187 10.9155 9.58857 10.1186 9.58857 9.13902C9.58857 8.15921 8.79187 7.36226 7.81257 7.36226Z" fill="#414141"/>
<path d="M7.81298 13.0389C5.66314 13.0389 3.91406 11.2893 3.91406 9.1392C3.91406 6.98859 5.66314 5.23926 7.81298 5.23926C9.96257 5.23926 11.7114 6.98859 11.7114 9.1392C11.7114 11.2893 9.96257 13.0389 7.81298 13.0389ZM7.81298 6.00116C6.08321 6.00116 4.67597 7.40891 4.67597 9.1392C4.67597 10.8692 6.08321 12.2767 7.81298 12.2767C9.54251 12.2767 10.9495 10.8692 10.9495 9.1392C10.9495 7.40891 9.54251 6.00116 7.81298 6.00116Z" fill="#414141"/>
<path d="M4.4625 3.42743H2.43076C2.22047 3.42743 2.0498 3.25677 2.0498 3.04648C2.0498 2.83619 2.22047 2.66553 2.43076 2.66553H4.4625C4.67279 2.66553 4.84346 2.83619 4.84346 3.04648C4.84346 3.25677 4.67279 3.42743 4.4625 3.42743Z" fill="#414141"/>
<path d="M12.5545 2.91943H12.7125C13.3166 2.91943 13.7144 3.39715 13.7144 4.00159V4.44375H11.6826V4.00159C11.6826 3.39715 11.9503 2.91943 12.5545 2.91943Z" fill="#414141"/>
</svg>
